<mxfile host="Electron" modified="2024-01-09T16:11:23.800Z" agent="Mozilla/5.0 (Windows NT 10.0; Win64; x64) AppleWebKit/537.36 (KHTML, like Gecko) draw.io/22.1.16 Chrome/120.0.6099.109 Electron/28.1.0 Safari/537.36" etag="3kY86ulfRYcMVvGORdYJ" version="22.1.16" type="device">
  <diagram id="6a731a19-8d31-9384-78a2-239565b7b9f0" name="Page-1">
    <mxGraphModel dx="3527" dy="701" grid="1" gridSize="10" guides="1" tooltips="1" connect="1" arrows="1" fold="1" page="1" pageScale="1" pageWidth="2336" pageHeight="1654" background="#636069" math="0" shadow="0">
      <root>
        <mxCell id="0" />
        <mxCell id="1" parent="0" />
        <mxCell id="y2xdC5eJ9DVOGFncXR0_-2085" value="" style="rounded=0;whiteSpace=wrap;html=1;opacity=20;strokeWidth=11;strokeColor=#F2F2F2;" parent="1" vertex="1">
          <mxGeometry x="240" y="870" width="590" height="170" as="geometry" />
        </mxCell>
        <mxCell id="y2xdC5eJ9DVOGFncXR0_-2127" value="" style="rounded=0;whiteSpace=wrap;html=1;opacity=20;strokeWidth=11;strokeColor=#F2F2F2;" parent="1" vertex="1">
          <mxGeometry x="240" y="1060" width="590" height="170" as="geometry" />
        </mxCell>
        <mxCell id="y2xdC5eJ9DVOGFncXR0_-2128" value="" style="rounded=0;whiteSpace=wrap;html=1;opacity=20;strokeWidth=11;strokeColor=#F2F2F2;" parent="1" vertex="1">
          <mxGeometry x="240" y="1250" width="590" height="170" as="geometry" />
        </mxCell>
        <mxCell id="y2xdC5eJ9DVOGFncXR0_-2088" value="Слой представления" style="text;html=1;strokeColor=none;fillColor=none;align=center;verticalAlign=middle;whiteSpace=wrap;rounded=0;fontColor=#FFFFFF;fontSize=20;" parent="1" vertex="1">
          <mxGeometry x="-20" y="940" width="260" height="30" as="geometry" />
        </mxCell>
        <mxCell id="y2xdC5eJ9DVOGFncXR0_-2089" value="Слой приложения" style="text;html=1;strokeColor=none;fillColor=none;align=center;verticalAlign=middle;whiteSpace=wrap;rounded=0;fontColor=#FFFFFF;fontSize=20;" parent="1" vertex="1">
          <mxGeometry x="-10" y="1130" width="210" height="30" as="geometry" />
        </mxCell>
        <mxCell id="y2xdC5eJ9DVOGFncXR0_-2090" value="Слой хранения данных" style="text;html=1;strokeColor=none;fillColor=none;align=center;verticalAlign=middle;whiteSpace=wrap;rounded=0;fontColor=#FFFFFF;fontSize=20;" parent="1" vertex="1">
          <mxGeometry x="-20" y="1320" width="270" height="30" as="geometry" />
        </mxCell>
        <mxCell id="y2xdC5eJ9DVOGFncXR0_-2098" value="&lt;font color=&quot;#f7f7f7&quot;&gt;Часть программы &lt;br&gt;кейлоггера-стилера, &lt;br&gt;отвечающая &lt;br&gt;за поиск, хеширование&lt;br&gt;и пересылку данных&lt;/font&gt;" style="verticalLabelPosition=bottom;html=1;verticalAlign=top;align=center;strokeColor=none;fillColor=#00BEF2;shape=mxgraph.azure.code_file;pointerEvents=1;" parent="1" vertex="1">
          <mxGeometry x="330" y="1075" width="47.5" height="50" as="geometry" />
        </mxCell>
        <mxCell id="y2xdC5eJ9DVOGFncXR0_-2101" value="&lt;font color=&quot;#ffffff&quot;&gt;Часть программы&lt;br&gt;администратора&lt;br&gt;отвечающая за прием данных,&lt;br&gt;записи во временные файлы&lt;br&gt;и перенаправление их&lt;br&gt;в БД&lt;/font&gt;" style="verticalLabelPosition=bottom;html=1;verticalAlign=top;align=center;strokeColor=none;fillColor=#00BEF2;shape=mxgraph.azure.code_file;pointerEvents=1;" parent="1" vertex="1">
          <mxGeometry x="710.5" y="1075" width="47.5" height="50" as="geometry" />
        </mxCell>
        <mxCell id="y2xdC5eJ9DVOGFncXR0_-2103" value="&lt;font color=&quot;#ffffff&quot;&gt;txt файлы,&lt;br&gt;временно &lt;br&gt;содержащие хешированную&lt;br&gt;информацию&lt;/font&gt;" style="verticalLabelPosition=bottom;html=1;verticalAlign=top;align=center;strokeColor=none;fillColor=#00BEF2;shape=mxgraph.azure.file;pointerEvents=1;" parent="1" vertex="1">
          <mxGeometry x="520" y="1075" width="47.5" height="50" as="geometry" />
        </mxCell>
        <mxCell id="y2xdC5eJ9DVOGFncXR0_-2105" value="" style="endArrow=classic;startArrow=classic;html=1;rounded=0;exitX=1;exitY=0.5;exitDx=0;exitDy=0;exitPerimeter=0;entryX=0;entryY=0.5;entryDx=0;entryDy=0;entryPerimeter=0;fontColor=#FFFFFF;strokeColor=#FFFFFF;" parent="1" source="y2xdC5eJ9DVOGFncXR0_-2103" target="y2xdC5eJ9DVOGFncXR0_-2101" edge="1">
          <mxGeometry width="50" height="50" relative="1" as="geometry">
            <mxPoint x="420" y="1190" as="sourcePoint" />
            <mxPoint x="470" y="1140" as="targetPoint" />
          </mxGeometry>
        </mxCell>
        <mxCell id="y2xdC5eJ9DVOGFncXR0_-2109" value="&lt;font color=&quot;#ffffff&quot;&gt;Сохранение данных,&lt;br&gt;их обработка&lt;/font&gt;" style="text;html=1;strokeColor=none;fillColor=none;align=center;verticalAlign=middle;whiteSpace=wrap;rounded=0;" parent="1" vertex="1">
          <mxGeometry x="578" y="1105" width="130" height="20" as="geometry" />
        </mxCell>
        <mxCell id="y2xdC5eJ9DVOGFncXR0_-2110" value="Локальная база&lt;br&gt;данных &quot;EHP_Project&quot;&amp;nbsp;&lt;br&gt;PostgreSQL" style="verticalLabelPosition=bottom;html=1;verticalAlign=top;align=center;strokeColor=none;fillColor=#00BEF2;shape=mxgraph.azure.database;fontColor=#FFFFFF;" parent="1" vertex="1">
          <mxGeometry x="330" y="1280" width="37.5" height="50" as="geometry" />
        </mxCell>
        <mxCell id="y2xdC5eJ9DVOGFncXR0_-2113" value="&lt;font color=&quot;#ffffff&quot;&gt;Почтовый сервис&lt;br&gt;mail.ru&lt;br&gt;(пересылка и &lt;br&gt;временное хранение)&lt;br&gt;&lt;/font&gt;" style="verticalLabelPosition=bottom;html=1;verticalAlign=top;align=center;strokeColor=none;fillColor=#00BEF2;shape=mxgraph.azure.message;pointerEvents=1;" parent="1" vertex="1">
          <mxGeometry x="708" y="1288.1200000000001" width="50" height="33.75" as="geometry" />
        </mxCell>
        <mxCell id="y2xdC5eJ9DVOGFncXR0_-2115" value="Извлечение и обработка данных на слое приложения" style="text;html=1;strokeColor=none;fillColor=none;align=center;verticalAlign=middle;whiteSpace=wrap;rounded=0;fontColor=#FFFFFF;" parent="1" vertex="1">
          <mxGeometry x="442.01" y="1270" width="186" height="30" as="geometry" />
        </mxCell>
        <mxCell id="y2xdC5eJ9DVOGFncXR0_-2123" value="&lt;font color=&quot;#ffffff&quot; style=&quot;font-size: 12px;&quot;&gt;Программный комплекс pgAdmin 4,&lt;br&gt;возможность просмотра БД&lt;br&gt;и взаимодействия с ней&lt;br&gt;через интерфейс.&lt;br&gt;&lt;/font&gt;" style="verticalLabelPosition=bottom;html=1;verticalAlign=top;align=center;strokeColor=none;fillColor=#00BEF2;shape=mxgraph.azure.storage;pointerEvents=1;" parent="1" vertex="1">
          <mxGeometry x="520" y="912.5" width="50" height="40" as="geometry" />
        </mxCell>
        <mxCell id="y2xdC5eJ9DVOGFncXR0_-2125" value="&lt;font color=&quot;#fafafa&quot;&gt;Интерфейс программы&lt;br style=&quot;border-color: var(--border-color);&quot;&gt;администратора - взаимодействие &lt;br&gt;с данными, просмотр БД.&lt;br style=&quot;border-color: var(--border-color);&quot;&gt;(Administrator_Interface_Tools.py)&lt;/font&gt;" style="verticalLabelPosition=bottom;html=1;verticalAlign=top;align=center;strokeColor=none;fillColor=#00BEF2;shape=mxgraph.azure.computer;pointerEvents=1;" parent="1" vertex="1">
          <mxGeometry x="327.5" y="915" width="50" height="45" as="geometry" />
        </mxCell>
        <mxCell id="y2xdC5eJ9DVOGFncXR0_-2126" value="&lt;font color=&quot;#ffffff&quot;&gt;Интерфейс программы&lt;br style=&quot;border-color: var(--border-color);&quot;&gt;кейлоггера-стилера&lt;br style=&quot;border-color: var(--border-color);&quot;&gt;(Stealer_Keylogger.py)&lt;/font&gt;" style="verticalLabelPosition=bottom;html=1;verticalAlign=top;align=center;strokeColor=none;fillColor=#00BEF2;shape=mxgraph.azure.computer;pointerEvents=1;" parent="1" vertex="1">
          <mxGeometry x="709.25" y="912.5" width="50" height="45" as="geometry" />
        </mxCell>
        <mxCell id="y2xdC5eJ9DVOGFncXR0_-2129" style="edgeStyle=orthogonalEdgeStyle;rounded=0;orthogonalLoop=1;jettySize=auto;html=1;exitX=0;exitY=0.5;exitDx=0;exitDy=0;exitPerimeter=0;entryX=1;entryY=0.5;entryDx=0;entryDy=0;entryPerimeter=0;strokeColor=#FFFFFF;" parent="1" source="y2xdC5eJ9DVOGFncXR0_-2113" target="y2xdC5eJ9DVOGFncXR0_-2110" edge="1">
          <mxGeometry relative="1" as="geometry" />
        </mxCell>
        <mxCell id="pdSKcHvt9s82ujp51HvI-1" value="Архитектурная диаграмма продукта &quot;Ethical Keylogger-Stealer&quot;" style="text;html=1;strokeColor=none;fillColor=none;align=center;verticalAlign=middle;whiteSpace=wrap;rounded=0;fontColor=#FFFFFF;fontSize=20;" vertex="1" parent="1">
          <mxGeometry x="227.87" y="812" width="614.25" height="30" as="geometry" />
        </mxCell>
        <mxCell id="pdSKcHvt9s82ujp51HvI-2" value="Многоуровневая архитектура" style="text;html=1;strokeColor=none;fillColor=none;align=center;verticalAlign=middle;whiteSpace=wrap;rounded=0;fontColor=#FFFFFF;fontSize=20;" vertex="1" parent="1">
          <mxGeometry x="-20" y="780" width="260" height="30" as="geometry" />
        </mxCell>
      </root>
    </mxGraphModel>
  </diagram>
</mxfile>
